<svg id="Layer_1" data-name="Layer 1" xmlns="http://www.w3.org/2000/svg" viewBox="0 0 339.47 341.56"><defs><style>.cls-1{fill:#e0201b;}.cls-2{fill:#1991c0;}</style></defs><title>logo3</title><path class="cls-1" d="M252.06,79.77a6.67,6.67,0,1,0,6.67,6.67A6.67,6.67,0,0,0,252.06,79.77Z" transform="translate(-32.67 -24.4)"/><path class="cls-1" d="M298.76,201.85a20,20,0,0,1-19.08-14,46.77,46.77,0,0,0,39.09-46.07,6.67,6.67,0,1,0-13.34,0,33.36,33.36,0,0,1-55.59,24.86,6.67,6.67,0,1,0-8.9,9.94A46.62,46.62,0,0,0,266,188.11a33.41,33.41,0,0,0,32.76,27.09A6.67,6.67,0,1,0,298.76,201.85Z" transform="translate(-32.67 -24.4)"/><path class="cls-1" d="M312.1,283.9c-25.31,0-46.7,22.3-46.7,48.7a6.67,6.67,0,1,0,13.34,0c0-18.83,15.59-35.36,33.36-35.36A6.67,6.67,0,0,0,312.1,283.9Z" transform="translate(-32.67 -24.4)"/><path class="cls-1" d="M311,261a59.91,59.91,0,0,0-52.23-30.43,6.67,6.67,0,0,0,0,13.34,46.6,46.6,0,0,1,40.63,23.66A6.67,6.67,0,0,0,311,261Z" transform="translate(-32.67 -24.4)"/><path class="cls-1" d="M212,73.1V346.75c2.54-3-1.88,3.51,0,0C221.23,363.87,245.6,366,265.4,366a53.51,53.51,0,0,0,46.09-26.69h0.61c25.31,0,46.7-22.3,46.7-48.7a42.71,42.71,0,0,0-.6-7,46.05,46.05,0,0,0,5.35-59.8,53.35,53.35,0,0,0,8.59-28.61,46.33,46.33,0,0,0-16.9-35.84,45.1,45.1,0,0,0,3.56-17.52,49.72,49.72,0,0,0-27-44A40,40,0,0,0,301.46,54.2c-7.67-17.73-24.74-29.8-42.73-29.8C242,24.4,220.29,35,212,49.27M325.44,243.88a45,45,0,0,0,28.46-10.49,32.83,32.83,0,0,1,4.89,17.16,33.21,33.21,0,0,1-12.16,25.52,6.67,6.67,0,0,0-2.22,6.69,32.92,32.92,0,0,1,1,7.82c0,20.71-18.73,37.44-35.62,35.13l-1.41-.18a6.67,6.67,0,0,0-6.8,3.82c-6.56,14.14-20.86,21.68-36.22,23.27-36.71,3.81-40-19.25-40-42a40.07,40.07,0,0,1,40-40,6.67,6.67,0,1,0,0-13.34,53.25,53.25,0,0,0-40,18.12V148.48a13.36,13.36,0,0,1,13.34-13.34,6.67,6.67,0,0,0,0-13.34,26.51,26.51,0,0,0-13.34,3.59V73.1c0-18.84,15.59-35.36,33.36-35.36,11.51,0,21.29,7.09,27.18,15.82A39.76,39.76,0,0,0,263.78,64.8a6.67,6.67,0,1,0,9.43,9.44,26.69,26.69,0,0,1,45.56,18.87c0,0.18,0,.35,0,0.52a43.26,43.26,0,0,0-6.65-.52c-25.31,0-46.7,22.3-46.7,48.7a6.67,6.67,0,0,0,13.34,0c0-18.83,15.59-35.36,33.36-35.36,18.67,0,33.36,17.34,33.36,35.36A32.83,32.83,0,0,1,341,158.14a6.67,6.67,0,0,0,2.23,8.93,33.17,33.17,0,0,1,15.58,28.11c0,18.9-15.3,35.36-33.36,35.36A6.67,6.67,0,1,0,325.44,243.88Z" transform="translate(-32.67 -24.4)"/><path class="cls-2" d="M153.72,79.77A6.67,6.67,0,1,1,147,86.44,6.7,6.7,0,0,1,153.72,79.77Z" transform="translate(-32.67 -24.4)"/><path class="cls-2" d="M106.64,201.85a20.19,20.19,0,0,0,19.23-14,46.88,46.88,0,0,1-39.41-46.07,6.73,6.73,0,0,1,13.45,0,33.68,33.68,0,0,0,56,24.86,6.76,6.76,0,0,1,9.5.52,6.63,6.63,0,0,1-.53,9.42,47.17,47.17,0,0,1-25.26,11.49,33.61,33.61,0,0,1-33,27.09A6.67,6.67,0,1,1,106.64,201.85Z" transform="translate(-32.67 -24.4)"/><path class="cls-2" d="M93.19,283.9c25.52,0,47.07,22.3,47.07,48.7a6.73,6.73,0,0,1-13.45,0c0-18.83-15.71-35.36-33.62-35.36A6.67,6.67,0,1,1,93.19,283.9Z" transform="translate(-32.67 -24.4)"/><path class="cls-2" d="M94.34,261A60.47,60.47,0,0,1,147,230.53a6.67,6.67,0,1,1,0,13.34,47,47,0,0,0-41,23.66,6.75,6.75,0,0,1-9.17,2.51A6.64,6.64,0,0,1,94.34,261Z" transform="translate(-32.67 -24.4)"/><path class="cls-2" d="M194.07,73.1V346.75c-2.56-3,1.9,3.51,0,0C184.8,363.87,160.23,366,140.27,366a54,54,0,0,1-46.46-26.69H93.19c-25.52,0-47.07-22.3-47.07-48.7a42.37,42.37,0,0,1,.6-7,45.78,45.78,0,0,1-5.39-59.8,53,53,0,0,1-8.66-28.61,46.19,46.19,0,0,1,17-35.84,44.79,44.79,0,0,1-3.59-17.52,49.68,49.68,0,0,1,27.19-44A40,40,0,0,1,103.92,54.2c7.73-17.73,24.94-29.8,43.08-29.8,16.89,0,38.76,10.62,47.07,24.87M79.74,243.88a45.61,45.61,0,0,1-28.69-10.49,32.63,32.63,0,0,0-4.93,17.16,33.11,33.11,0,0,0,12.26,25.52,6.64,6.64,0,0,1,2.24,6.69,32.67,32.67,0,0,0-1,7.82c0,20.71,18.88,37.44,35.9,35.13l1.42-.18a6.73,6.73,0,0,1,6.86,3.82c6.61,14.14,21,21.68,36.52,23.27,37,3.81,40.35-19.25,40.35-42a40.23,40.23,0,0,0-40.35-40,6.67,6.67,0,1,1,0-13.34,53.86,53.86,0,0,1,40.35,18.12V148.48a13.41,13.41,0,0,0-13.45-13.34,6.67,6.67,0,1,1,0-13.34,26.89,26.89,0,0,1,13.45,3.59V73.1c0-18.84-15.71-35.36-33.62-35.36-11.6,0-21.47,7.09-27.4,15.82A40.2,40.2,0,0,1,141.9,64.8a6.63,6.63,0,0,1,0,9.43,6.76,6.76,0,0,1-9.51,0A27,27,0,0,0,86.47,93.11c0,0.18,0,.35,0,0.52a44,44,0,0,1,6.71-.52c25.52,0,47.07,22.3,47.07,48.7a6.73,6.73,0,0,1-13.45,0c0-18.83-15.71-35.36-33.62-35.36-18.82,0-33.62,17.34-33.62,35.36a32.63,32.63,0,0,0,4.51,16.33,6.64,6.64,0,0,1-2.25,8.93,33.11,33.11,0,0,0-15.7,28.11c0,18.9,15.43,35.36,33.62,35.36A6.67,6.67,0,1,1,79.74,243.88Z" transform="translate(-32.67 -24.4)"/></svg>